<svg width="25" height="24" viewBox="0 0 25 24" fill="none" xmlns="http://www.w3.org/2000/svg">
<path d="M10.9504 19.5584L13.6043 2.71124L20.9556 0L24.1707 5.98016L24.5 8.69691L17.2767 22.5242L15.0002 23.0081L11.4306 21.8508L10.9504 19.5584Z" fill="#0074B6"/>
<path d="M15.0004 23.0083L21.7008 9.28565L16.0703 6.59204L11.4309 21.851L15.0004 23.0083Z" fill="#008AB6"/>
<path d="M16.0701 6.59203L11.4306 21.851L10.9504 19.5586L13.6043 2.71143L16.0701 6.59203Z" fill="#87E8FD"/>
<path d="M20.9558 0L16.0702 6.59184L13.6045 2.71124L16.9706 0.347171L20.9558 0Z" fill="#D4F9E4"/>
<path d="M16.0703 6.59184L21.7008 9.28545L24.5002 8.69691L20.9558 0L17.8304 2.49522L16.0703 6.59184Z" fill="#A9FFE5"/>
<path d="M20.9558 0L24.5002 8.69691L24.1709 5.98016L20.9558 0Z" fill="#0074B6"/>
<path d="M21.7008 9.28545L20.9558 0L24.5002 8.69691L21.7008 9.28545Z" fill="#87E8FD"/>
<path d="M2.52161 10.0801L0.5 14.4941L5.16348 21.9798L6.6217 22.7436L9.56331 22.791L10.3334 20.5801L8.98024 13.1484L6.08458 10.1374L2.52161 10.0801Z" fill="#0074B6"/>
<path d="M6.74951 14.6595L8.98006 13.1484L10.6527 21.8387L9.56313 22.791L6.74951 14.6595Z" fill="#87E8FD"/>
<path d="M3.90771 15.2898L6.74978 14.6594L9.5634 22.7909L6.62179 22.7436L3.90771 15.2898Z" fill="#008AB6"/>
<path d="M8.03076 20.1127L10.7262 17.1909L13.3429 19.3026L12.633 22.9705L11.3421 23.9999L9.56337 22.7908L8.03076 20.1127Z" fill="#0074B6"/>
<path d="M0.5 14.4941L3.90763 15.2898L2.52161 10.0801L0.5 14.4941Z" fill="#87E8FD"/>
<path d="M3.90763 15.2899L6.6217 22.7436L5.16348 21.9798L0.5 14.4941L3.90763 15.2899Z" fill="#0074B6"/>
<path d="M3.90751 15.2898L6.74957 14.6594L5.38105 11.6087L2.52148 10.0801L3.90751 15.2898Z" fill="#A9FFE5"/>
<path d="M2.52148 10.0801L5.38105 11.6087L6.08445 10.1374L2.52148 10.0801Z" fill="#D4F9E4"/>
<path d="M5.38135 11.6088L6.08475 10.1375L8.98042 13.1485L6.74987 14.6595L5.38135 11.6088Z" fill="#92FAE1"/>
<path d="M8.03076 20.1127L10.0371 21.433L10.7262 17.1909L8.03076 20.1127Z" fill="#87E8FD"/>
<path d="M10.7261 17.1909L11.7609 21.3437L13.3428 19.3026L10.7261 17.1909Z" fill="#D4F9E4"/>
<path d="M10.7263 17.1909L10.0371 21.433L11.7612 21.3437L10.7263 17.1909Z" fill="#008AB6"/>
<path d="M10.0371 21.4333L11.3422 24.0001L11.7612 21.344L10.0371 21.4333Z" fill="#0074B6"/>
<path d="M11.7613 21.3439L13.3431 19.3027L12.6331 22.9706L11.3423 24L11.7613 21.3439Z" fill="#008AB6"/>
<path d="M7.15574 15.0759C6.94789 15.2743 6.54751 15.2721 6.30466 15.0032C6.05743 14.7386 6.11869 14.3705 6.332 14.1777C6.53985 13.9793 6.95993 13.9705 7.20278 14.2394C7.45001 14.5039 7.36906 14.883 7.15574 15.077V15.0759Z" fill="#BCFED9"/>
<path d="M16.9706 0.347168L17.8304 2.49522L16.0702 6.59184L13.6045 2.71124L16.9706 0.347168Z" fill="#92FAE1"/>
<path d="M22.6907 12.161L21.7007 9.28556L24.5001 8.69702L22.6907 12.161Z" fill="#008AB6"/>
<path d="M22.1064 9.6633C21.8986 9.86168 21.4982 9.85948 21.2553 9.59056C21.0081 9.32605 21.0694 8.95793 21.2827 8.76506C21.4905 8.56668 21.9106 8.55786 22.1535 8.82678C22.4007 9.09129 22.3197 9.47042 22.1064 9.6644V9.6633Z" fill="#BCFED9"/>
</svg>
