<svg width="33" height="32" viewBox="0 0 33 32" fill="none" xmlns="http://www.w3.org/2000/svg">
<path d="M26.27 15.32C27.8606 13.5935 28.7294 11.3233 28.6978 8.9761C28.6661 6.62886 27.7365 4.38291 26.1 2.69995L18.1 10.7L17.39 11.41L16.2 12.6L15.54 13.26L15.12 13.68L3.98 24.82C3.87688 24.9137 3.79449 25.0279 3.73811 25.1554C3.68173 25.2828 3.6526 25.4206 3.6526 25.5599C3.6526 25.6993 3.68173 25.8371 3.73811 25.9645C3.79449 26.092 3.87688 26.2062 3.98 26.2999L6.67 29C6.86796 29.193 7.13351 29.301 7.41 29.301C7.68649 29.301 7.95203 29.193 8.15 29L15.29 21.86L16.78 23.35C16.8737 23.4531 16.988 23.5355 17.1154 23.5918C17.2428 23.6482 17.3806 23.6773 17.52 23.6773C17.6593 23.6773 17.7972 23.6482 17.9246 23.5918C18.052 23.5355 18.1663 23.4531 18.26 23.35L18.68 22.93L20.91 20.7L22.57 19L23.77 17.8L26.28 15.29L26.27 15.32Z" fill="#456DBB"/>
<path d="M27.11 17.0901C26.82 17.0901 24.9 20.9301 24.9 22.1501C24.8796 22.4535 24.9218 22.7578 25.0238 23.0443C25.1259 23.3307 25.2858 23.5931 25.4934 23.8152C25.7011 24.0373 25.9522 24.2144 26.2311 24.3355C26.5101 24.4565 26.8109 24.519 27.115 24.519C27.4191 24.519 27.7199 24.4565 27.9989 24.3355C28.2778 24.2144 28.5289 24.0373 28.7366 23.8152C28.9443 23.5931 29.1041 23.3307 29.2062 23.0443C29.3083 22.7578 29.3504 22.4535 29.33 22.1501C29.33 20.9301 27.41 17.0901 27.11 17.0901Z" fill="#456DBB"/>
</svg>
