<svg width="23" height="28" viewBox="0 0 23 28" fill="none" xmlns="http://www.w3.org/2000/svg">
<path d="M19.65 21.2199C19.5917 20.994 19.4637 20.7923 19.2842 20.6433C19.1047 20.4943 18.8828 20.4056 18.65 20.3899H17.95C19.8084 19.0368 21.1909 17.1304 21.8996 14.9435C22.6083 12.7567 22.6068 10.4017 21.8953 8.21579C21.1838 6.02988 19.7988 4.12517 17.9387 2.77446C16.0786 1.42374 13.8388 0.696289 11.54 0.696289C9.24121 0.696289 7.00138 1.42374 5.14128 2.77446C3.28117 4.12517 1.8962 6.02988 1.18472 8.21579C0.473236 10.4017 0.471729 12.7567 1.18041 14.9435C1.8891 17.1304 3.27163 19.0368 5.13 20.3899H4.43C4.19724 20.4056 3.97535 20.4943 3.79584 20.6433C3.61632 20.7923 3.48832 20.994 3.43 21.2199L2.2 26.4599C2.17309 26.5604 2.1703 26.6657 2.19184 26.7675C2.21338 26.8692 2.25865 26.9644 2.32396 27.0453C2.38927 27.1262 2.47277 27.1905 2.56767 27.233C2.66256 27.2755 2.76615 27.295 2.87 27.2899H20.13C20.2339 27.295 20.3374 27.2755 20.4323 27.233C20.5272 27.1905 20.6107 27.1262 20.676 27.0453C20.7414 26.9644 20.7866 26.8692 20.8082 26.7675C20.8297 26.6657 20.8269 26.5604 20.8 26.4599L19.65 21.2199ZM4.18 6.81992C4.17802 6.45361 4.28484 6.09495 4.48691 5.78941C4.68898 5.48387 4.97722 5.24519 5.31508 5.10363C5.65294 4.96208 6.02523 4.92401 6.38475 4.99426C6.74427 5.06451 7.07484 5.23991 7.33457 5.49824C7.5943 5.75656 7.77149 6.08618 7.84369 6.44531C7.91589 6.80445 7.87984 7.17693 7.74011 7.51556C7.60039 7.85419 7.36328 8.14371 7.05884 8.34743C6.75439 8.55116 6.39632 8.65992 6.03 8.65992C5.54108 8.65993 5.07203 8.46639 4.72538 8.12161C4.37872 7.77683 4.18264 7.30884 4.18 6.81992Z" fill="white"/>
</svg>
