<svg width="29" height="27" viewBox="0 0 29 27" fill="none" xmlns="http://www.w3.org/2000/svg">
<path d="M23.81 20.2601C23.143 19.3208 22.5384 18.3386 22 17.3201C21.52 16.2701 22.19 14.1701 21.9 13.5401C21.77 13.2501 19.57 10.4601 19.57 10.2601C19.57 10.0601 20.21 7.3401 19.64 6.7901C19.1348 6.14847 18.7116 5.4464 18.38 4.7001C18.38 4.5001 18.79 2.9701 19.23 3.5601C19.67 4.1501 19.33 5.1401 20.09 5.6601C21.0686 6.37995 22.1294 6.98084 23.25 7.4501C23.43 7.3301 23.49 6.7401 23.44 6.4501C23.39 6.1601 20.12 1.1501 19.44 0.780098C18.76 0.410098 16.86 -0.219902 16.29 0.150098C14.533 1.62489 12.8635 3.2009 11.29 4.8701C10.99 5.4001 11.1 8.2301 10.43 9.2801C9.76 10.3301 7.38 12.9101 7.1 13.5401C6.82 14.1701 7.48 16.2701 7 17.3201C6.46164 18.3386 5.85701 19.3208 5.19 20.2601C5.19 20.2601 0.790001 19.4201 0.500001 22.1601C0.230001 24.7301 11.65 26.2701 14.5 26.0001C17.35 26.2601 28.77 24.7201 28.5 22.1501C28.21 19.4201 23.81 20.2601 23.81 20.2601ZM15.35 14.6801C16.2092 13.9072 17.1214 13.1955 18.08 12.5501C18.53 12.4001 19.01 13.0801 18.26 14.2401C18.0357 14.6332 17.695 14.9472 17.285 15.1388C16.8749 15.3304 16.4155 15.3903 15.97 15.3101C15.22 15.3101 15.35 14.6801 15.35 14.6801ZM11.28 12.5501C12.2416 13.1958 13.1571 13.9075 14.02 14.6801C14.02 14.6801 14.15 15.3101 13.4 15.3101C12.9545 15.3903 12.4951 15.3304 12.0851 15.1388C11.675 14.9472 11.3343 14.6332 11.11 14.2401C10.36 13.0801 10.84 12.4001 11.28 12.5501ZM20.11 18.5501C19.54 18.7001 18.66 18.2601 18.35 18.7501C18.04 19.2401 18.35 20.1501 17.12 20.2501C15.89 20.3501 15.88 20.3501 15.22 21.1701C14.56 21.9901 14.16 20.0001 13.59 20.1001C13.02 20.2001 12.14 20.7301 11.92 20.4401C11.7 20.1501 11.08 18.6001 10.59 18.7001C10.1 18.8001 9.45 18.8401 9.49 18.1201C9.92739 18.0791 10.3576 17.9816 10.77 17.8301C11.12 17.6301 11.52 17.5801 12.09 18.1201C12.66 18.6601 12.71 18.4101 13.5 18.1201C14.29 17.8301 14.21 18.4601 14.74 18.4601C15.27 18.4601 15.57 17.6801 15.97 17.8301C16.37 17.9801 16.76 18.5501 17.2 18.3101C17.64 18.0701 18.39 17.1001 18.66 17.3901C19.0313 17.699 19.497 17.8719 19.98 17.8801C20.38 17.8801 20.68 18.4101 20.11 18.5501Z" fill="#456DBB"/>
</svg>
