<svg width="29" height="26" viewBox="0 0 29 26" fill="none" xmlns="http://www.w3.org/2000/svg">
<path d="M20.24 0.789997C19.3481 0.947472 18.4715 1.18168 17.62 1.49L20.69 9.31L14.76 13.31L16.04 17.38L15.94 17.45L10.41 12L15.85 8.13C15.31 6.9 14.85 5.72 14.29 4.64C13.4882 3.01051 12.0845 1.7564 10.3753 1.14252C8.66618 0.528636 6.78533 0.603032 5.12999 1.35C1.70999 2.92 -0.110008 7 0.769992 11.13C1.41305 13.775 2.80128 16.1801 4.76999 18.06C7.1107 20.3259 9.68509 22.3371 12.45 24.06C13.12 24.5 13.8 25.25 14.45 25.24C15.1 25.23 15.84 24.48 16.53 24.05L16.63 23.98C19.6277 22.115 22.3792 19.8808 24.82 17.33C26.3201 15.738 27.4264 13.8167 28.05 11.72C29.72 5.82 25.74 0.229997 20.24 0.789997Z" fill="white"/>
</svg>
