<svg width="27" height="30" viewBox="0 0 27 30" fill="none" xmlns="http://www.w3.org/2000/svg">
<path d="M26.91 14.2401C26.91 14.0401 26.83 13.8401 26.78 13.6501C26.78 13.6501 26.78 13.6001 26.78 13.5701C26.7594 13.4914 26.7327 13.4145 26.7 13.3401C26.6779 13.2587 26.6511 13.1785 26.62 13.1001L26.5 12.9401C26.4725 12.8887 26.4491 12.8352 26.43 12.7801L26.34 12.5901V12.5201L26.24 12.3401L26.15 12.1701L26.09 12.0601C26.0532 12.0125 26.0198 11.9623 25.99 11.9101C25.9867 11.8869 25.9867 11.8633 25.99 11.8401C25.9536 11.7992 25.9201 11.7558 25.89 11.7101C25.8715 11.6736 25.848 11.6399 25.82 11.6101L25.77 11.5401C25.2755 10.9209 24.649 10.4201 23.9362 10.0741C23.2234 9.72803 22.4423 9.5456 21.65 9.54009V8.71009C21.6548 8.67023 21.6548 8.62994 21.65 8.59009C21.65 6.46836 20.8071 4.43352 19.3069 2.93323C17.8066 1.43294 15.7717 0.590088 13.65 0.590088C11.5283 0.590088 9.49344 1.43294 7.99314 2.93323C6.49285 4.43352 5.65 6.46836 5.65 8.59009C5.64518 8.62994 5.64518 8.67023 5.65 8.71009V9.55009H5.5C4.70804 9.55772 3.92766 9.74108 3.21517 10.0869C2.50269 10.4328 1.87588 10.9326 1.38 11.5501C1.38 11.5501 1.27 11.6901 1.11 11.9301L0.939999 12.0001C0.814439 12.1911 0.704099 12.3917 0.609999 12.6001C0.549999 12.7201 0.499999 12.8401 0.439999 12.9701C0.332382 13.2432 0.24547 13.524 0.179999 13.8101C0.084703 14.1997 0.0343745 14.599 0.0299988 15.0001C0.0299988 15.2401 0.0299988 15.4801 0.0299988 15.7001C0.0966652 16.2762 0.258887 16.8373 0.509999 17.3601C0.663157 17.3497 0.81684 17.3497 0.969999 17.3601C1.824 17.3601 2.64302 17.6993 3.24688 18.3032C3.85075 18.9071 4.19 19.7261 4.19 20.5801C4.19 20.5801 4.19 20.8401 4.19 21.0801C4.1963 21.17 4.1963 21.2602 4.19 21.3501C4.19 21.4901 4.19 21.6301 4.19 21.7401C4.17746 22.25 4.26934 22.757 4.46 23.2301C4.63701 23.6234 4.90837 23.9669 5.25 24.2301C5.62784 24.5283 6.05877 24.7523 6.52 24.8901C7.08388 25.0609 7.66343 25.1748 8.25 25.2301L8.7 25.3101L8.83 25.3601L9.06 25.4401L9.2 25.5101L9.36 25.6001C9.40201 25.6309 9.44209 25.6643 9.48 25.7001L9.6 25.8001L9.71 25.9201L9.8 26.0301L9.9 26.1701L9.96 26.2601L10.06 26.4501V26.5101L10.18 26.7401C10.4134 27.4259 10.8635 28.0172 11.4624 28.4248C12.0612 28.8325 12.7764 29.0344 13.5 29.0001C14.1908 28.9973 14.8637 28.7803 15.426 28.3792C15.9884 27.978 16.4125 27.4123 16.64 26.7601L16.76 26.5301V26.4701L16.86 26.2801L16.92 26.1901L17.02 26.0501L17.11 25.9401L17.22 25.8201L17.34 25.7201C17.3779 25.6843 17.418 25.6509 17.46 25.6201L17.62 25.5301L17.76 25.4601L17.99 25.3801L18.12 25.3301L18.57 25.2501C19.1566 25.1948 19.7361 25.0809 20.3 24.9101C20.7612 24.7723 21.1922 24.5483 21.57 24.2501C21.9116 23.9869 22.183 23.6434 22.36 23.2501C22.5507 22.777 22.6425 22.27 22.63 21.7601C22.6182 21.5736 22.6182 21.3866 22.63 21.2001C22.63 20.9301 22.68 20.6801 22.68 20.6301C22.68 19.7761 23.0192 18.9571 23.6231 18.3532C24.227 17.7493 25.046 17.4101 25.9 17.4101C26.0532 17.3997 26.2068 17.3997 26.36 17.4101C26.7466 16.6646 26.9554 15.8397 26.97 15.0001C26.9696 14.7456 26.9496 14.4915 26.91 14.2401ZM16.3 7.32009C16.4713 7.31915 16.6408 7.35429 16.7976 7.4232C16.9544 7.49212 17.0949 7.59328 17.21 7.72009C17.4336 7.95061 17.5591 8.25891 17.56 8.58009C17.56 8.74555 17.5274 8.9094 17.4641 9.06227C17.4008 9.21514 17.308 9.35404 17.191 9.47104C17.0739 9.58804 16.935 9.68085 16.7822 9.74418C16.6293 9.8075 16.4655 9.84009 16.3 9.84009C16.1345 9.84009 15.9707 9.8075 15.8178 9.74418C15.6649 9.68085 15.526 9.58804 15.409 9.47104C15.292 9.35404 15.1992 9.21514 15.1359 9.06227C15.0726 8.9094 15.04 8.74555 15.04 8.58009C15.04 8.24591 15.1727 7.92543 15.409 7.68913C15.6453 7.45284 15.9658 7.32009 16.3 7.32009ZM10.64 7.32009C10.9742 7.32009 11.2947 7.45284 11.531 7.68913C11.7672 7.92543 11.9 8.24591 11.9 8.58009C11.9 8.91426 11.7672 9.23475 11.531 9.47104C11.2947 9.70734 10.9742 9.84009 10.64 9.84009C10.3058 9.84009 9.98534 9.70734 9.74904 9.47104C9.51275 9.23475 9.38 8.91426 9.38 8.58009C9.38089 8.25891 9.50636 7.95061 9.73 7.72009C9.84511 7.59328 9.98563 7.49212 10.1424 7.4232C10.2992 7.35429 10.4687 7.31915 10.64 7.32009Z" fill="#456DBB"/>
</svg>
