<svg width="33" height="32" viewBox="0 0 33 32" fill="none" xmlns="http://www.w3.org/2000/svg">
<path d="M30.11 23.39C30.0198 23.3056 29.9121 23.2421 29.7946 23.2041C29.677 23.1661 29.5525 23.1545 29.43 23.17C27.07 23.39 24.71 23.64 22.35 23.88L10.44 25.09C8.08999 25.33 5.74999 25.56 3.43999 25.81C2.89999 25.86 2.74999 26.17 2.97999 26.65C3.20999 27.13 3.49999 27.65 3.70999 28.19C3.77712 28.4062 3.92081 28.5905 4.11412 28.7083C4.30742 28.8262 4.53706 28.8694 4.75999 28.83C8.41999 28.75 12.08 28.7 15.76 28.64C19.44 28.58 23.25 28.52 26.99 28.48C27.1549 28.4893 27.319 28.4508 27.4627 28.3692C27.6063 28.2876 27.7234 28.1664 27.8 28.02C28.55 26.71 29.33 25.41 30.07 24.1C30.1282 23.9918 30.1619 23.8722 30.1688 23.7495C30.1757 23.6268 30.1557 23.5041 30.11 23.39Z" fill="#456DBB"/>
<path d="M15.13 4.3901C17.1022 7.81587 18.1209 11.7074 18.08 15.6601C18.0093 18.2678 17.1556 20.794 15.63 22.9101C15.5471 23.0843 15.4898 23.2695 15.46 23.4601C15.646 23.5487 15.8453 23.6061 16.05 23.6301L21.88 23.0701L27.8 22.5101C28.08 22.5101 28.3 22.4301 28.42 22.1301C28.8418 21.1356 29.0953 20.0778 29.17 19.0001C29.2619 16.6253 28.511 14.2945 27.05 12.4201C23.99 8.2201 19.75 5.5201 15.23 3.2101C15.1668 3.17682 15.0964 3.15942 15.025 3.15942C14.9536 3.15942 14.8832 3.17682 14.82 3.2101C14.7798 3.27524 14.7545 3.34845 14.7458 3.42451C14.7372 3.50057 14.7454 3.5776 14.77 3.6501C14.8701 3.90597 14.9904 4.15343 15.13 4.3901Z" fill="#456DBB"/>
<path d="M7.58 24.62L12.32 24.1C12.7956 24.0767 13.2615 23.9576 13.69 23.75C13.69 23.63 13.75 23.08 13.77 22.53L13.93 18.84C13.93 18.29 13.99 17.39 14.02 16.84L14.44 7.59002C14.44 7.04002 14.44 6.44002 14.44 6.38002C14.4284 6.35283 14.4106 6.32874 14.388 6.30964C14.3654 6.29054 14.3387 6.27698 14.31 6.27002C14.1385 6.5607 13.9913 6.86507 13.87 7.18002L6.61 23.8C6.39 24.3 6.27 24.72 6.35 24.73C6.43 24.74 7.03 24.68 7.58 24.62Z" fill="#456DBB"/>
</svg>
