<svg width="33" height="32" viewBox="0 0 33 32" fill="none" xmlns="http://www.w3.org/2000/svg">
<path d="M30.08 19.2199C30.0386 19.1588 29.9837 19.1081 29.9195 19.0717C29.8554 19.0353 29.7837 19.0141 29.71 19.0099C28.27 19.1999 26.84 19.3999 25.41 19.6499C24.4974 19.7821 23.6203 20.0949 22.83 20.5699C20.9384 21.7387 18.7889 22.4254 16.57 22.5699C15.2728 22.6826 13.9741 22.3702 12.87 21.6799C12.1044 21.2156 11.3131 20.7949 10.5 20.4199C10.07 20.2299 9.58 20.1499 9.13 19.9899C8.03907 19.5681 7.04553 18.9284 6.21 18.1099C5.31 17.2799 4.46 16.3799 3.6 15.5099C3.46 15.3699 3.33 15.1999 3.11 15.3099C2.89 15.4199 2.96 15.6499 3.01 15.8299C3.06 16.0099 3.17 16.4099 3.26 16.6899C3.78448 18.2909 4.45392 19.8406 5.26 21.3199C6.37192 23.4064 7.83305 25.2869 9.58 26.8799C10.6309 27.8854 11.886 28.6528 13.26 29.1299C13.66 29.2599 14.07 29.3599 14.5 29.4599C14.5737 29.4201 14.6562 29.3995 14.74 29.3999H17.05C17.0952 29.3612 17.1509 29.3369 17.21 29.3299C17.65 29.3299 18.09 29.1999 18.52 29.1299C19.3576 28.9824 20.1672 28.7058 20.92 28.3099C22.3056 27.5348 23.5226 26.4911 24.5 25.2399C25.37 24.1699 26.23 23.0999 27.14 22.0599C27.6169 21.5463 28.1245 21.0621 28.66 20.6099C29.09 20.2399 29.56 19.9199 30 19.5499C30.03 19.4799 30.12 19.2699 30.08 19.2199Z" fill="#456DBB"/>
<path d="M9.06 18.2101C9.42 18.4401 9.82 18.6101 10.21 18.8101V18.7101C9.52727 17.3722 9.06147 15.9342 8.83 14.4501C8.62508 13.1706 8.8025 11.8591 9.34 10.6801C9.79106 9.71911 10.4418 8.86529 11.2488 8.17556C12.0557 7.48582 13.0005 6.97601 14.02 6.68011C15.72 6.10011 17.42 5.56011 19.12 5.01011C19.41 4.91011 19.46 4.78011 19.27 4.53011C19.0306 4.20076 18.7629 3.89292 18.47 3.61011C18.1927 3.29999 17.8539 3.05094 17.4751 2.87879C17.0964 2.70663 16.686 2.61514 16.27 2.61011C15.3894 2.66972 14.514 2.79 13.65 2.97011C12.1644 3.28201 10.7162 3.75133 9.33 4.37011C8.33061 4.74792 7.42118 5.33037 6.66 6.08011C5.29501 7.6211 4.47301 9.5672 4.32 11.6201C4.20005 12.8279 4.55915 14.0345 5.32 14.9801C6.35944 16.2757 7.62694 17.3703 9.06 18.2101Z" fill="#456DBB"/>
<path d="M18.32 6.81002C18.32 6.88002 18.41 6.98002 18.49 7.03002C18.81 7.24002 19.15 7.43002 19.49 7.64002C20.2883 8.11705 20.9447 8.7987 21.3913 9.61446C21.8378 10.4302 22.0583 11.3505 22.03 12.28C22.0373 13.2836 21.9704 14.2863 21.83 15.28C21.6289 16.5034 21.2374 17.6877 20.67 18.79C20.45 19.21 20.17 19.59 19.94 19.99C19.9032 20.0786 19.8861 20.1742 19.89 20.27C19.9864 20.2799 20.0836 20.2799 20.18 20.27C20.2469 20.2638 20.3117 20.2434 20.37 20.21C20.92 19.91 21.45 19.59 22.01 19.32C22.86 18.91 23.7 18.5 24.58 18.17C25.46 17.84 26.35 17.62 27.23 17.34C27.4899 17.2742 27.7312 17.1499 27.9357 16.9766C28.1402 16.8033 28.3025 16.5856 28.41 16.34C28.6867 15.691 28.7867 14.9802 28.7 14.28C28.5 12.87 28.25 11.48 28.04 10.08C27.972 9.61461 27.8035 9.16958 27.5462 8.77585C27.2889 8.38212 26.949 8.04913 26.55 7.80002L25.5 7.10002C24.4934 6.3814 23.2868 5.99667 22.05 6.00002C20.8404 5.99755 19.6394 6.20391 18.5 6.61002C18.458 6.62936 18.4203 6.65707 18.3894 6.69146C18.3584 6.72585 18.3348 6.76619 18.32 6.81002Z" fill="#456DBB"/>
<path d="M11.57 10C11.48 10.06 11.35 10.1 11.29 10.19C10.5226 11.3196 10.1693 12.6797 10.29 14.04C10.3969 15.5401 10.9198 16.9806 11.8 18.2C12.2669 18.8674 12.8777 19.4215 13.5873 19.8213C14.2969 20.2211 15.0873 20.4565 15.9 20.51C16.5371 20.5467 17.1679 20.367 17.69 20C18.5023 19.3482 19.1269 18.4924 19.5 17.52C19.67 17.13 19.82 16.74 19.96 16.34C19.9771 16.2315 19.9521 16.1206 19.89 16.03C19.89 16.03 19.71 16.03 19.63 16.03C19.505 16.0833 19.3846 16.1469 19.27 16.22C18.3189 16.7479 17.2891 17.1193 16.22 17.32C15.5369 17.4706 14.822 17.3563 14.22 17C13.511 16.5225 12.9152 15.8954 12.4747 15.1629C12.0341 14.4303 11.7594 13.6101 11.67 12.76C11.62 11.9474 11.62 11.1326 11.67 10.32C11.6512 10.2093 11.6175 10.1017 11.57 10Z" fill="#456DBB"/>
<path d="M16.42 14.5101C16.29 14.5701 16.09 14.6901 16.1 14.7701C16.135 14.9174 16.2242 15.0459 16.35 15.1301C16.6474 15.3655 17.0115 15.5009 17.3904 15.5171C17.7693 15.5332 18.1437 15.4293 18.46 15.2201C18.9527 14.9404 19.3757 14.5526 19.6971 14.086C20.0185 13.6193 20.2299 13.0859 20.3156 12.5258C20.4012 11.9657 20.3589 11.3935 20.1916 10.8521C20.0244 10.3108 19.7366 9.81432 19.35 9.40012C18.978 8.94225 18.5127 8.56895 17.985 8.30512C17.4573 8.04129 16.8795 7.893 16.29 7.87012C15.7559 7.8728 15.2245 7.94679 14.71 8.09012C14.3536 8.17279 14.0207 8.33551 13.7366 8.56595C13.4524 8.79639 13.2245 9.08849 13.07 9.42012C13.0175 9.58505 12.9905 9.75704 12.99 9.93012C13.1635 9.91233 13.3346 9.87544 13.5 9.82012C14.2601 9.42558 15.1168 9.25562 15.97 9.33012C16.14 9.33012 17.28 9.72012 17.48 10.0601C17.7734 10.5614 17.9892 11.1042 18.12 11.6701C18.2208 12.2683 18.105 12.8829 17.7934 13.4034C17.4818 13.9239 16.9949 14.3163 16.42 14.5101Z" fill="#456DBB"/>
<path d="M14.14 15.15C14.5174 15.6197 15.0553 15.9331 15.65 16.03L15.34 15.55C14.929 15.0466 14.6414 14.4542 14.5 13.82C14.4693 13.629 14.4841 13.4335 14.5432 13.2493C14.6023 13.0651 14.704 12.8975 14.84 12.76C14.8999 12.8528 14.9534 12.9497 15 13.05C15.0294 13.1495 15.0805 13.2413 15.1498 13.3187C15.219 13.3961 15.3046 13.4571 15.4003 13.4973C15.4961 13.5375 15.5995 13.5559 15.7032 13.5512C15.807 13.5464 15.9083 13.5187 16 13.47C16.1912 13.3801 16.3599 13.2488 16.4938 13.0855C16.6278 12.9223 16.7237 12.7312 16.7745 12.5261C16.8252 12.3211 16.8296 12.1074 16.7874 11.9004C16.7451 11.6935 16.6571 11.4986 16.53 11.33C16.2145 10.9242 15.76 10.6496 15.254 10.5591C14.7481 10.4686 14.2265 10.5687 13.79 10.84C13.5036 10.98 13.2674 11.2049 13.1135 11.4841C12.9596 11.7632 12.8955 12.0831 12.93 12.4C12.9948 13.431 13.4236 14.4056 14.14 15.15Z" fill="#456DBB"/>
</svg>
