<svg width="27" height="28" viewBox="0 0 27 28" fill="none" xmlns="http://www.w3.org/2000/svg">
<path d="M26.5 11.59C25.7778 11.9798 24.9707 12.1859 24.15 12.19C23.2672 12.209 22.3951 11.9939 21.6224 11.5665C20.8497 11.1392 20.2039 10.5148 19.7508 9.75687C19.2977 8.99897 19.0534 8.13459 19.0427 7.25164C19.032 6.36868 19.2553 5.49864 19.69 4.73001C17.9687 4.33372 16.1709 4.42725 14.5 5.00001C14.44 4.84001 14.38 4.68001 14.31 4.53001C14.6973 4.58166 15.0911 4.55424 15.4675 4.44939C15.8439 4.34454 16.1952 4.16445 16.5 3.92001C18.15 2.92001 18.91 1.14001 18.62 0.680007C18.33 0.220007 16.42 0.110007 14.77 1.13001C13.77 1.76001 13.33 2.35001 13.25 2.90001C12.6929 2.26856 12.0122 1.75805 11.25 1.40001C10.25 0.960007 9.3 1.30001 9.25 1.83001L9.2 2.21001C9.2 2.74001 9.69 3.21001 10.25 3.50001C10.8679 3.79172 11.3987 4.23987 11.79 4.80001C9.95143 4.30572 8.00453 4.3966 6.22 5.06001C0.959999 7.06001 -1.43 13.61 0.879999 19.69C3.07 25.34 8.5 28.59 13.5 27.42C18.5 28.59 23.93 25.34 26.08 19.69C27.0936 17.1068 27.241 14.2642 26.5 11.59ZM17.3 16.15C16.86 16.58 15.3 17.41 14.88 16.98C14.46 16.55 15.28 14.98 15.71 14.57C15.9195 14.3592 16.2042 14.2402 16.5015 14.2392C16.7987 14.2383 17.0842 14.3555 17.295 14.565C17.5058 14.7745 17.6248 15.0592 17.6258 15.3565C17.6267 15.6537 17.5095 15.9392 17.3 16.15ZM9.44 14.57C9.54325 14.4654 9.66626 14.3823 9.80187 14.3256C9.93749 14.2689 10.083 14.2398 10.23 14.2398C10.377 14.2398 10.5225 14.2689 10.6581 14.3256C10.7937 14.3823 10.9167 14.4654 11.02 14.57C11.46 15 12.29 16.57 11.85 16.98C11.41 17.39 9.85 16.58 9.44 16.15C9.23086 15.9415 9.11166 15.6594 9.10792 15.3641C9.10419 15.0688 9.2162 14.7837 9.42 14.57H9.44Z" fill="#456DBB"/>
</svg>
