<svg width="23" height="28" viewBox="0 0 23 28" fill="none" xmlns="http://www.w3.org/2000/svg">
<path d="M22.74 3.9999V3.4899C22.726 3.19585 22.6228 2.91302 22.4442 2.67902C22.2656 2.44502 22.02 2.27093 21.74 2.1799C15.0513 0.100189 7.88875 0.100189 1.20001 2.1799C0.920052 2.27093 0.674431 2.44502 0.495805 2.67902C0.317178 2.91302 0.214009 3.19585 0.200012 3.4899V16.4899C0.200012 19.0599 4.70001 26.9999 11.38 27.3399H11.5C18.18 26.9999 22.7 19.0599 22.68 16.4899V3.9999H22.74ZM5.82001 9.2199C6.57308 9.0859 7.34855 9.25589 7.97649 9.69264C8.60444 10.1294 9.03363 10.7973 9.17001 11.5499L9.23001 11.8699C9.23001 12.2099 8.79001 12.2499 8.32001 11.9599C7.68829 11.6051 6.95736 11.468 6.24001 11.5699C5.53686 11.7264 4.9045 12.1093 4.44001 12.6599C4.10001 13.0899 3.70001 13.1999 3.55001 12.8899L3.50001 12.5699C3.43219 12.1976 3.43841 11.8156 3.51832 11.4456C3.59824 11.0757 3.75027 10.7252 3.96573 10.4141C4.18119 10.103 4.45586 9.83736 4.77403 9.63245C5.0922 9.42755 5.44763 9.28736 5.82001 9.2199ZM19.5 12.5699L19.45 12.8899C19.3 13.1999 18.9 13.0899 18.56 12.6599C18.0955 12.1093 17.4632 11.7264 16.76 11.5699C16.0427 11.468 15.3117 11.6051 14.68 11.9599C14.21 12.2499 13.8 12.2099 13.77 11.8699L13.83 11.5499C13.8857 11.1686 14.0174 10.8024 14.2173 10.4729C14.4171 10.1435 14.681 9.85744 14.9934 9.63181C15.3058 9.40618 15.6602 9.24554 16.0358 9.15939C16.4114 9.07323 16.8005 9.06333 17.1799 9.13026C17.5594 9.19718 17.9216 9.33958 18.2451 9.54902C18.5685 9.75846 18.8466 10.0307 19.063 10.3496C19.2793 10.6684 19.4295 11.0275 19.5045 11.4054C19.5796 11.7834 19.5781 12.1726 19.5 12.5499V12.5699ZM15.76 16.9999C15.6756 18.0491 15.1811 19.0227 14.3837 19.7097C13.5862 20.3967 12.5501 20.7417 11.5 20.6699C10.4499 20.7417 9.41381 20.3967 8.61636 19.7097C7.81892 19.0227 7.3244 18.0491 7.24001 16.9999V16.7199C7.31001 16.4299 7.65001 16.5499 7.98001 16.9899C7.98001 16.9899 9.59001 19.0999 11.5 19.0999C13.41 19.0999 15.02 16.9999 15.02 16.9999C15.35 16.5599 15.69 16.4399 15.76 16.7299V16.9999Z" fill="#456DBB"/>
</svg>
