<svg width="29" height="20" viewBox="0 0 29 20" fill="none" xmlns="http://www.w3.org/2000/svg">
<path d="M19.16 0.600098C15.97 0.600098 14.99 2.4801 14.99 2.4801C14.72 2.9901 14.28 2.9901 13.99 2.4801C13.99 2.4801 12.99 0.600098 9.82001 0.600098C5.89001 0.600098 0.500011 9.0001 0.500011 9.0001C0.34929 9.25566 0.281794 9.55178 0.306879 9.84742C0.331963 10.1431 0.448385 10.4236 0.640011 10.6501C0.640011 10.6501 2.89001 13.1001 6.00001 16.3001C8.66001 19.0401 13.29 19.3001 13.29 19.3001L14.34 19.3701H14.66L15.71 19.3001C15.71 19.3001 20.34 19.0001 23 16.3001C26.11 13.1001 28.36 10.6501 28.36 10.6501C28.5516 10.4236 28.6681 10.1431 28.6931 9.84742C28.7182 9.55178 28.6507 9.25566 28.5 9.0001C28.5 9.0001 23.11 0.600098 19.16 0.600098ZM14.5 11.0001C11.07 11.0001 8.19001 10.5401 7.19001 9.9001C9.64733 9.76413 12.0909 9.44322 14.5 8.9401C16.9101 9.42978 19.3537 9.73731 21.81 9.8601C20.81 10.5001 17.93 11.0001 14.5 11.0001Z" fill="#456DBB"/>
</svg>
