<svg width="21" height="28" viewBox="0 0 21 28" fill="none" xmlns="http://www.w3.org/2000/svg">
<path d="M20.57 1.20998C20.5223 1.1009 20.4582 0.999731 20.38 0.909981L18.5 3.20998L19.31 3.87998C19.4197 3.94826 19.5136 4.03912 19.5854 4.1465C19.6573 4.25389 19.7054 4.37534 19.7267 4.50278C19.748 4.63023 19.7418 4.76074 19.7087 4.88563C19.6756 5.01052 19.6163 5.12693 19.5347 5.22712C19.4532 5.32731 19.3512 5.40898 19.2356 5.46669C19.12 5.52441 18.9934 5.55684 18.8643 5.56184C18.7352 5.56684 18.6065 5.54429 18.4868 5.49569C18.3671 5.44709 18.2591 5.37356 18.17 5.27998L17.35 4.60998L16.42 5.74998L17.24 6.41998C17.4301 6.57672 17.5556 6.79812 17.5925 7.04172C17.6295 7.28532 17.5751 7.53396 17.44 7.73998C17.2646 7.91847 17.0286 8.02468 16.7786 8.03764C16.5287 8.0506 16.283 7.96937 16.09 7.80998L15.5 7.34998L15.25 7.14998L15.12 7.29998L14.46 8.10998C14.3871 8.20322 14.2966 8.28119 14.1936 8.33944C14.0906 8.39769 13.9771 8.43508 13.8596 8.44947C13.7421 8.46386 13.623 8.45498 13.509 8.42332C13.3949 8.39167 13.2882 8.33786 13.195 8.26498C13.1018 8.1921 13.0238 8.10156 12.9656 7.99855C12.9073 7.89553 12.8699 7.78205 12.8555 7.66458C12.8411 7.54712 12.85 7.42797 12.8817 7.31393C12.9133 7.1999 12.9671 7.09322 13.04 6.99998C13.04 6.99998 13.04 6.99998 13.04 6.91998L13.83 5.91998L12.83 5.09998C12.6373 4.94285 12.51 4.71954 12.473 4.47363C12.436 4.22772 12.492 3.97685 12.63 3.76998C12.8055 3.59149 13.0414 3.48528 13.2914 3.47232C13.5413 3.45936 13.787 3.54059 13.98 3.69998L14.98 4.51998L15.91 3.37998L14.91 2.55998C14.8083 2.48673 14.7223 2.39389 14.6571 2.28692C14.5918 2.17995 14.5486 2.06101 14.5299 1.93709C14.5113 1.81318 14.5176 1.68679 14.5486 1.56535C14.5795 1.44392 14.6344 1.32989 14.71 1.22998C14.8855 1.05149 15.1214 0.94528 15.3714 0.93232C15.6213 0.91936 15.867 1.00059 16.06 1.15998L17.06 1.97998L18.29 0.47998H1.29001C1.02479 0.47998 0.770438 0.585337 0.582902 0.772874C0.395366 0.96041 0.290009 1.21476 0.290009 1.47998V15C0.290009 16.75 1.57001 19.52 3.77001 21.67V26.42C3.77001 26.6852 3.87537 26.9396 4.0629 27.1271C4.25044 27.3146 4.50479 27.42 4.77001 27.42H16.16C16.4252 27.42 16.6796 27.3146 16.8671 27.1271C17.0547 26.9396 17.16 26.6852 17.16 26.42V21.69C19.36 19.54 20.65 16.77 20.64 15.02V1.55998C20.6379 1.44006 20.6141 1.32151 20.57 1.20998ZM15.29 13.36H15.61C16.16 13.36 16.61 13.44 16.61 13.54V13.64C16.6198 13.7698 16.6198 13.9002 16.61 14.03C16.5166 14.5492 16.2446 15.0194 15.8409 15.3591C15.4373 15.6988 14.9276 15.8866 14.4 15.89C13.9145 15.8894 13.4423 15.7312 13.0545 15.439C12.6667 15.1468 12.3844 14.7365 12.25 14.27L12.17 14C12.1601 13.8702 12.1601 13.7398 12.17 13.61V13.51C12.17 13.43 12.49 13.37 12.89 13.34H15.32L15.29 13.36ZM4.70001 13.64V13.54C4.70001 13.47 4.98001 13.4 5.35001 13.37H8.17001C8.72001 13.37 9.17001 13.45 9.17001 13.55V13.65C9.17985 13.7798 9.17985 13.9102 9.17001 14.04C9.14925 14.1425 9.11912 14.2429 9.08001 14.34C8.91998 14.8147 8.60611 15.2224 8.18814 15.4985C7.77017 15.7747 7.272 15.9034 6.77257 15.8644C6.27315 15.8253 5.80103 15.6208 5.43104 15.283C5.06104 14.9453 4.81434 14.4938 4.73001 14C4.71154 13.8808 4.70152 13.7605 4.70001 13.64ZM13.4 24.35H7.60001C7.40654 24.3487 7.2176 24.2914 7.05607 24.1849C6.89455 24.0784 6.76739 23.9273 6.69001 23.75C6.63877 23.6298 6.61159 23.5007 6.61001 23.37V21.77C6.61001 21.5048 6.71537 21.2504 6.9029 21.0629C7.09044 20.8753 7.34479 20.77 7.61001 20.77H13.41C13.6752 20.77 13.9296 20.8753 14.1171 21.0629C14.3047 21.2504 14.41 21.5048 14.41 21.77V23.37C14.4084 23.5007 14.3812 23.6298 14.33 23.75C14.2513 23.9304 14.121 24.0836 13.9556 24.1904C13.7901 24.2971 13.5969 24.3526 13.4 24.35Z" fill="#456DBB"/>
</svg>
