<svg width="23" height="28" viewBox="0 0 23 28" fill="none" xmlns="http://www.w3.org/2000/svg">
<path d="M21.77 0.739912C15.0798 2.81022 7.92017 2.81022 1.23001 0.739912C1.11989 0.683843 0.996736 0.658375 0.873412 0.666169C0.750087 0.673962 0.631118 0.714731 0.528935 0.784216C0.426751 0.853701 0.345103 0.949352 0.292519 1.06118C0.239935 1.173 0.218347 1.29689 0.230008 1.41991V16.4199C0.230008 18.8599 4.73001 26.8199 11.41 27.2599H11.53C18.21 26.8199 22.73 18.8599 22.71 16.4199V1.41991C22.7162 1.30464 22.6935 1.18965 22.6437 1.08547C22.594 0.981287 22.519 0.891242 22.4254 0.823582C22.3319 0.755922 22.2229 0.712809 22.1084 0.698191C21.9939 0.683574 21.8775 0.697918 21.77 0.739912ZM7.10001 13.3299C6.72698 13.3976 6.34426 13.391 5.97379 13.3105C5.60332 13.2299 5.2524 13.077 4.94116 12.8606C4.62992 12.6441 4.36448 12.3683 4.16008 12.049C3.95567 11.7297 3.81631 11.3732 3.75001 10.9999L3.69001 10.6799C3.69001 10.3399 4.13001 10.2999 4.60001 10.5899C5.23173 10.9447 5.96266 11.0818 6.68001 10.9799C7.39209 10.8319 8.03336 10.4478 8.50001 9.88991C8.84001 9.45991 9.24001 9.35991 9.39001 9.65991L9.45001 9.97991C9.51615 10.3542 9.5078 10.7379 9.42543 11.109C9.34307 11.4801 9.18831 11.8313 8.97001 12.1425C8.75172 12.4536 8.47419 12.7187 8.1533 12.9225C7.83242 13.1262 7.47448 13.2647 7.10001 13.3299ZM15.5 20.6799C15.43 20.9499 15.1 20.8199 14.77 20.3799C14.77 20.3799 13.27 18.4299 11.47 18.4299C9.67001 18.4299 8.17001 20.3799 8.17001 20.3799C7.84001 20.8199 7.51001 20.9499 7.44001 20.6799V20.4099C7.45974 19.7729 7.65758 19.1542 8.01108 18.624C8.36459 18.0937 8.85961 17.6731 9.44001 17.4099C10.0604 17.098 10.7456 16.9369 11.44 16.9399C12.1157 16.9406 12.7824 17.0945 13.39 17.3899C13.984 17.6434 14.4943 18.0595 14.8623 18.5902C15.2302 19.1209 15.4409 19.7448 15.47 20.3899L15.5 20.6799ZM19.25 10.9999C19.2073 11.3932 19.0843 11.7736 18.8887 12.1174C18.693 12.4612 18.4288 12.7613 18.1125 12.9988C17.7962 13.2364 17.4345 13.4066 17.0497 13.4987C16.665 13.5908 16.2654 13.6029 15.8758 13.5343C15.4862 13.4657 15.1148 13.3178 14.7846 13.0999C14.4545 12.8819 14.1726 12.5985 13.9564 12.2671C13.7403 11.9358 13.5944 11.5636 13.528 11.1736C13.4615 10.7836 13.4758 10.3841 13.57 9.99991L13.63 9.67991C13.78 9.37991 14.18 9.47991 14.52 9.90991C14.9815 10.464 15.6152 10.8477 16.32 10.9999C17.0374 11.1018 17.7683 10.9647 18.4 10.6099C18.87 10.3199 19.28 10.3599 19.31 10.6999L19.25 10.9999ZM18.66 18.0599C18.3948 18.0599 18.1404 17.9546 17.9529 17.767C17.7654 17.5795 17.66 17.3251 17.66 17.0599C17.7969 16.455 18.0334 15.8771 18.36 15.3499L18.68 14.7799C18.68 14.7799 18.76 14.9099 18.86 15.0999C19.2479 15.7159 19.5317 16.3917 19.7 17.0999C19.6949 17.2313 19.6639 17.3603 19.6088 17.4797C19.5537 17.599 19.4756 17.7064 19.3791 17.7955C19.2825 17.8847 19.1692 17.954 19.0459 17.9993C18.9225 18.0447 18.7914 18.0653 18.66 18.0599Z" fill="#456DBB"/>
</svg>
