<svg width="25" height="28" viewBox="0 0 25 28" fill="none" xmlns="http://www.w3.org/2000/svg">
<path d="M24.71 15.16C24.56 13.94 24.43 12.72 24.24 11.51C23.9418 9.40551 23.2641 7.37258 22.24 5.51002C21.3709 3.93366 20.1104 2.60773 18.58 1.66002C16.6677 0.558563 14.4968 -0.0143605 12.29 2.00548e-05C11.62 0.0700201 10.95 0.10002 10.29 0.20002C8.23893 0.458244 6.3517 1.45339 4.98001 3.00002C3.88965 4.28764 3.12178 5.81652 2.74001 7.46002C2.34286 9.09564 2.17127 10.7779 2.23001 12.46C2.23605 12.5336 2.22259 12.6075 2.19098 12.6742C2.15938 12.7409 2.11076 12.7981 2.05001 12.84C1.41033 13.2333 0.903445 13.8096 0.595002 14.4942C0.286558 15.1788 0.190759 15.9403 0.320008 16.68C0.401156 17.3612 0.674697 18.0051 1.1086 18.5364C1.5425 19.0677 2.1188 19.4644 2.77001 19.68C3.01304 19.7571 3.23241 19.895 3.40738 20.0804C3.58235 20.2659 3.70716 20.4929 3.77001 20.74C4.4857 22.9143 5.82448 24.8303 7.62001 26.25C8.47354 26.9339 9.46088 27.4314 10.5184 27.7104C11.5759 27.9894 12.6802 28.0438 13.76 27.87C15.4524 27.5874 17.0128 26.7792 18.22 25.56C19.7062 24.1149 20.8064 22.3202 21.42 20.34C21.4703 20.1671 21.5583 20.0076 21.6776 19.8727C21.7969 19.7378 21.9446 19.6311 22.11 19.56C22.7588 19.2606 23.3091 18.7829 23.6968 18.1828C24.0846 17.5826 24.2938 16.8845 24.3 16.17C24.2898 16.0436 24.2898 15.9165 24.3 15.79C24.3 15.73 24.37 15.64 24.4 15.64C24.78 15.63 24.74 15.39 24.71 15.16ZM16.05 19.16C15.7713 19.152 15.5012 19.0615 15.2739 18.9C15.0466 18.7386 14.8723 18.5133 14.773 18.2528C14.6737 17.9922 14.6539 17.7081 14.716 17.4363C14.7782 17.1645 14.9195 16.9172 15.1222 16.7257C15.3249 16.5342 15.5798 16.4071 15.8547 16.3605C16.1296 16.3138 16.4121 16.3497 16.6666 16.4636C16.9211 16.5776 17.1361 16.7644 17.2844 17.0005C17.4328 17.2365 17.5078 17.5113 17.5 17.79C17.5001 17.9786 17.4623 18.1653 17.389 18.339C17.3156 18.5127 17.2082 18.67 17.073 18.8015C16.9378 18.9329 16.7776 19.0359 16.6019 19.1044C16.4262 19.1729 16.2385 19.2054 16.05 19.2V19.16ZM15 22.72C15.0446 22.7001 15.0927 22.6892 15.1416 22.688C15.1904 22.6868 15.239 22.6952 15.2846 22.7129C15.3302 22.7306 15.3718 22.7571 15.407 22.7909C15.4423 22.8247 15.4705 22.8652 15.49 22.91C15.528 23.0019 15.5295 23.1048 15.4942 23.1977C15.4589 23.2907 15.3894 23.3666 15.3 23.41C14.479 23.7705 13.5893 23.9474 12.6929 23.9284C11.7964 23.9094 10.915 23.695 10.11 23.3C10.0212 23.2563 9.95334 23.179 9.92145 23.0852C9.88957 22.9915 9.89625 22.8889 9.94001 22.8C9.98377 22.7112 10.061 22.6433 10.1548 22.6115C10.2486 22.5796 10.3512 22.5863 10.44 22.63C11.1473 22.9774 11.9222 23.1656 12.71 23.1811C13.4979 23.1967 14.2796 23.0393 15 22.72ZM9.15001 19.2C8.87114 19.2 8.59853 19.1173 8.36665 18.9624C8.13478 18.8075 7.95406 18.5872 7.84734 18.3296C7.74062 18.072 7.7127 17.7885 7.7671 17.5149C7.82151 17.2414 7.9558 16.9902 8.15299 16.793C8.35018 16.5958 8.60142 16.4615 8.87493 16.4071C9.14844 16.3527 9.43195 16.3806 9.68959 16.4874C9.94724 16.5941 10.1674 16.7748 10.3224 17.0067C10.4773 17.2385 10.56 17.5112 10.56 17.79C10.56 18.164 10.4115 18.5226 10.147 18.787C9.8826 19.0515 9.52396 19.2 9.15001 19.2ZM21.97 18.08C22.05 17.24 21.84 16.39 21.63 16.4C21.14 16.45 16.04 15.74 15.91 15.71C14.99 15.47 14.06 15.27 13.15 14.99C11.2304 14.4218 9.47933 13.3917 8.05001 11.99L7.95001 11.9C7.86001 11.9 7.83001 11.82 7.73001 11.78H7.60001H7.41001L7.17001 11.91C6.60001 12.91 6.03001 13.91 5.45001 14.91C5.09001 15.52 4.70001 16.12 4.30001 16.71C4.23122 16.7972 4.1542 16.8776 4.07001 16.95C3.91631 17.4663 3.83553 18.0014 3.83001 18.54C3.49199 18.4967 3.16633 18.3849 2.8729 18.2117C2.57946 18.0384 2.32439 17.8071 2.12322 17.532C1.92206 17.257 1.77902 16.9438 1.70282 16.6116C1.62662 16.2795 1.61886 15.9353 1.68001 15.6C1.78031 15.0978 2.00753 14.6296 2.34001 14.24C2.39001 14.51 2.41001 14.72 2.46001 14.93C2.52888 15.2066 2.61915 15.4774 2.73001 15.74C2.74006 15.8245 2.77385 15.9044 2.82746 15.9704C2.88106 16.0365 2.9523 16.086 3.03289 16.1132C3.11349 16.1404 3.20015 16.1442 3.28283 16.1242C3.3655 16.1042 3.44081 16.0611 3.50001 16C3.75235 15.7995 3.97462 15.5637 4.16001 15.3C4.57001 14.71 4.96001 14.1 5.34001 13.47C5.99001 12.38 6.34001 11.76 6.98001 10.66C7.04001 10.56 7.25001 9.93002 7.44001 9.87002C7.63001 9.81002 7.83001 10.31 8.02001 10.52C9.40393 11.9609 11.121 13.0393 13.02 13.66C13.92 13.97 14.85 14.2 15.77 14.46C15.89 14.46 19.7 14.87 20.1 14.91C20.5 14.95 20.77 14.69 20.58 14.23C20.4211 13.8876 20.2442 13.5538 20.05 13.23C20.1133 13.2571 20.1736 13.2906 20.23 13.33C20.92 13.8 21.6 14.33 22.31 14.73C22.4831 14.8344 22.627 14.9808 22.7284 15.1556C22.8298 15.3304 22.8854 15.528 22.89 15.73C22.9547 16.1679 22.9039 16.6152 22.7425 17.0274C22.5811 17.4396 22.3148 17.8024 21.97 18.08Z" fill="#456DBB"/>
</svg>
