<svg width="29" height="28" viewBox="0 0 29 28" fill="none" xmlns="http://www.w3.org/2000/svg">
<path d="M27.91 24.84L24.04 21C26.02 18.4051 26.9463 15.1579 26.6332 11.9089C26.3201 8.65993 24.7907 5.64932 22.3516 3.48036C19.9124 1.3114 16.7437 0.14435 13.4804 0.213077C10.2171 0.281803 7.10035 1.58123 4.75468 3.85096C2.40902 6.12069 1.00776 9.19302 0.831715 12.4523C0.655671 15.7116 1.71785 18.917 3.80539 21.4261C5.89293 23.9353 8.8516 25.5629 12.0885 25.9827C15.3254 26.4025 18.6014 25.5836 21.26 23.69L25.17 27.6C25.2629 27.6937 25.3736 27.7681 25.4954 27.8189C25.6173 27.8696 25.748 27.8958 25.88 27.8958C26.012 27.8958 26.1427 27.8696 26.2646 27.8189C26.3864 27.7681 26.497 27.6937 26.59 27.6L27.91 26.28C28.0068 26.1867 28.0838 26.0749 28.1363 25.9512C28.1889 25.8274 28.216 25.6944 28.216 25.56C28.216 25.4256 28.1889 25.2925 28.1363 25.1688C28.0838 25.0451 28.0068 24.9333 27.91 24.84ZM11.91 8.73999C13.83 5.73999 16.91 4.35999 18.8 5.56999C20.69 6.77999 20.4 9.92999 18.5 12.9C18.1827 13.4086 17.8284 13.8933 17.44 14.35C17.1102 14.8332 16.6177 15.1819 16.0524 15.3324C15.487 15.4829 14.8864 15.4253 14.36 15.17C13.9015 15.0013 13.454 14.8042 13.02 14.58C9.87999 12.81 10.01 11.71 11.93 8.73999H11.91ZM14.57 18.59C14.4146 18.9591 14.1869 19.2934 13.9003 19.5731C13.6136 19.8528 13.2739 20.0723 12.9011 20.2186C12.5283 20.3649 12.13 20.4351 11.7296 20.425C11.3293 20.415 10.935 20.3249 10.57 20.16C10.2137 19.9701 9.89934 19.7103 9.64583 19.396C9.39233 19.0817 9.20488 18.7195 9.0947 18.3311C8.98452 17.9427 8.95388 17.536 9.00462 17.1354C9.05536 16.7349 9.18643 16.3487 9.38999 16C10.17 14.42 10.39 14.94 12.5 16.13C14.61 17.32 15.37 17 14.59 18.59H14.57Z" fill="#456DBB"/>
</svg>
