<svg width="25" height="28" viewBox="0 0 25 28" fill="none" xmlns="http://www.w3.org/2000/svg">
<path d="M24.04 25.0999L17.93 18.0999C17.5394 17.6006 17.3124 16.993 17.28 16.3599V6.45991C17.28 3.59991 13.28 0.689914 13.28 0.689914C13.0442 0.52912 12.7654 0.443115 12.48 0.443115C12.1946 0.443115 11.9158 0.52912 11.68 0.689914C11.68 0.689914 7.68 3.59991 7.68 6.45991V16.3799C7.64755 17.013 7.42056 17.6206 7.03 18.1199L0.919997 25.1199C0.559997 25.5299 0.709997 25.8699 1.26 25.8699H7.17C8.70761 26.987 10.5594 27.5887 12.46 27.5887C14.3606 27.5887 16.2124 26.987 17.75 25.8699H23.7C24.25 25.8499 24.4 25.5099 24.04 25.0999ZM12.5 5.50991C12.8956 5.50991 13.2822 5.62721 13.6111 5.84698C13.94 6.06674 14.1964 6.37909 14.3478 6.74455C14.4991 7.11 14.5387 7.51213 14.4616 7.90009C14.3844 8.28806 14.1939 8.64442 13.9142 8.92413C13.6345 9.20383 13.2781 9.39431 12.8902 9.47149C12.5022 9.54866 12.1001 9.50905 11.7346 9.35767C11.3692 9.2063 11.0568 8.94995 10.8371 8.62105C10.6173 8.29216 10.5 7.90548 10.5 7.50991C10.5 6.97948 10.7107 6.47077 11.0858 6.0957C11.4609 5.72063 11.9696 5.50991 12.5 5.50991Z" fill="#456DBB"/>
</svg>
