<svg width="154" height="18" viewBox="0 0 154 18" fill="none" xmlns="http://www.w3.org/2000/svg">
<g opacity="0.4">
<path d="M11.3927 17.16C10.8904 17.16 10.6393 16.7965 10.7963 16.3421L13.0878 10.1927C13.2448 9.73833 13.7784 9.37482 14.2807 9.37482H27.2766C27.7788 9.37482 28.03 9.73833 27.873 10.1927L25.5815 16.3421C25.4245 16.7965 24.8909 17.16 24.3886 17.16H11.3927Z" fill="url(#paint0_linear_9_843)"/>
</g>
<path opacity="0.5" d="M19.0521 12.2829C19.0521 12.2829 11.5183 14.4337 10.8904 16.2209C10.2626 18.0082 12.3344 12.2829 12.3344 12.2829H19.0521Z" fill="url(#paint1_linear_9_843)"/>
<g opacity="0.9">
<path d="M6.08759 12.2829C5.58533 12.2829 5.33421 11.9194 5.49116 11.465L7.8141 5.31558C7.97105 4.86119 8.5047 4.49768 9.00696 4.49768H22.0029C22.5051 4.49768 22.7562 4.86119 22.5993 5.31558L20.2763 11.465C20.1194 11.9194 19.5857 12.2829 19.0835 12.2829H6.08759Z" fill="url(#paint2_linear_9_843)"/>
</g>
<g opacity="0.76">
<path d="M1.12781 7.3149C0.625556 7.3149 0.374428 6.95139 0.531383 6.497L2.85432 0.377898C3.01128 -0.0764912 3.54492 -0.440002 4.04718 -0.440002H17.0431C17.5453 -0.440002 17.7965 -0.0764912 17.6395 0.377898L15.3166 6.5273C15.1596 6.98168 14.626 7.3452 14.1237 7.3452H1.12781V7.3149Z" fill="url(#paint3_linear_9_843)"/>
</g>
<path opacity="0.76" d="M13.9354 7.31488C13.9354 7.31488 6.21315 9.52624 5.58533 11.3135C4.95751 13.1008 7.06071 7.31488 7.06071 7.31488H13.9354Z" fill="url(#paint4_linear_9_843)"/>
<path d="M41.4026 16.9177C39.7702 16.9177 38.3262 16.3421 37.1648 15.2213C36.0033 14.1004 35.4069 12.7373 35.4069 11.1318C35.4069 9.55656 36.0033 8.1631 37.1648 7.04227C38.3262 5.92145 39.7388 5.34589 41.4026 5.34589C43.0349 5.34589 44.4789 5.92145 45.6403 7.04227C45.8601 7.25432 45.9543 7.46637 45.9543 7.76929C45.9543 8.07222 45.8601 8.28427 45.6403 8.49632C45.4206 8.70836 45.2009 8.79924 44.887 8.79924C44.6044 8.79924 44.3533 8.70836 44.1336 8.49632C43.3802 7.76929 42.4698 7.40578 41.4026 7.40578C40.3353 7.40578 39.4249 7.76929 38.6715 8.49632C37.9181 9.22334 37.5415 10.1018 37.5415 11.1621C37.5415 12.192 37.9181 13.0705 38.6715 13.7975C39.4249 14.5245 40.3353 14.8881 41.4026 14.8881C42.4698 14.8881 43.3802 14.5245 44.1336 13.7975C44.3533 13.5855 44.573 13.4946 44.887 13.4946C45.1695 13.4946 45.4206 13.5855 45.6403 13.7975C45.8601 14.0096 45.9543 14.2216 45.9543 14.5245C45.9543 14.7972 45.8601 15.0395 45.6403 15.2516C44.4789 16.3421 43.0663 16.9177 41.4026 16.9177Z" fill="#333333"/>
<path d="M49.3131 16.9176C49.0306 16.9176 48.7794 16.8268 48.5597 16.6147C48.34 16.4027 48.2458 16.1906 48.2458 15.8877V6.40611C48.2458 6.13347 48.34 5.89113 48.5597 5.67909C48.7794 5.46704 48.9992 5.37616 49.3131 5.37616C49.5956 5.37616 49.8467 5.46704 50.0351 5.67909C50.2548 5.89113 50.349 6.10318 50.349 6.40611V14.9183H55.8738C56.1563 14.9183 56.4075 15.0092 56.6272 15.2213C56.8155 15.4333 56.9411 15.6454 56.9411 15.918C56.9411 16.1906 56.8469 16.433 56.6272 16.645C56.4075 16.8571 56.1877 16.9479 55.8738 16.9479H49.3131V16.9176Z" fill="#333333"/>
<path d="M60.143 16.9176C59.8605 16.9176 59.6093 16.8268 59.3896 16.6147C59.1699 16.4027 59.0757 16.1906 59.0757 15.8877V6.40611C59.0757 6.13347 59.1699 5.89113 59.3896 5.67909C59.6093 5.46704 59.8291 5.37616 60.143 5.37616C60.4255 5.37616 60.6766 5.46704 60.865 5.67909C61.0847 5.89113 61.1789 6.10318 61.1789 6.40611V15.918C61.1789 16.1906 61.0847 16.433 60.865 16.645C60.6766 16.8268 60.4255 16.9176 60.143 16.9176Z" fill="#333333"/>
<path d="M69.6545 16.9177C68.0222 16.9177 66.5782 16.3421 65.4167 15.2213C64.2552 14.1004 63.6588 12.7373 63.6588 11.1318C63.6588 9.55656 64.2552 8.1631 65.4167 7.04227C66.5782 5.92145 67.9908 5.34589 69.6545 5.34589C71.3182 5.34589 72.7308 5.92145 73.8923 7.04227C74.112 7.25432 74.2062 7.46637 74.2062 7.76929C74.2062 8.07222 74.112 8.28427 73.8923 8.49632C73.6726 8.70836 73.4528 8.79924 73.1389 8.79924C72.8564 8.79924 72.6053 8.70836 72.3855 8.49632C71.6321 7.76929 70.7218 7.40578 69.6545 7.40578C68.5872 7.40578 67.6769 7.76929 66.9235 8.49632C66.1701 9.22334 65.7934 10.1018 65.7934 11.1621C65.7934 12.192 66.1701 13.0705 66.9235 13.7975C67.6769 14.5245 68.5872 14.8881 69.6545 14.8881C70.7218 14.8881 71.6321 14.5245 72.3855 13.7975C72.6053 13.5855 72.825 13.4946 73.1389 13.4946C73.4214 13.4946 73.6726 13.5855 73.8923 13.7975C74.112 14.0096 74.2062 14.2216 74.2062 14.5245C74.2062 14.7972 74.112 15.0395 73.8923 15.2516C72.7308 16.3421 71.3182 16.9177 69.6545 16.9177Z" fill="#333333"/>
<path d="M85.7581 16.9176C85.3814 16.9176 85.0989 16.7662 84.8791 16.4633L81.897 12.1617H78.5695V15.918C78.5695 16.1906 78.4754 16.433 78.2556 16.645C78.0359 16.8571 77.8161 16.9479 77.5022 16.9479C77.2197 16.9479 76.9686 16.8571 76.7488 16.645C76.5291 16.433 76.4349 16.2209 76.4349 15.918V6.40611C76.4349 6.13347 76.5291 5.89113 76.7488 5.67909C76.9686 5.46704 77.1883 5.37616 77.5022 5.37616C77.7848 5.37616 78.0359 5.46704 78.2242 5.67909C78.444 5.89113 78.5381 6.10318 78.5381 6.40611V10.1624H81.8656L84.8477 5.86084C85.0047 5.6185 85.2244 5.46704 85.507 5.43674C85.5697 5.43674 85.6325 5.40645 85.7267 5.40645C85.9464 5.40645 86.1348 5.46704 86.3231 5.58821C86.5742 5.73967 86.6998 5.95172 86.7626 6.22435C86.8254 6.49699 86.7626 6.73933 86.6056 6.98167L83.7177 11.1923L86.6056 15.3727C86.7626 15.6151 86.8254 15.8574 86.7626 16.13C86.6998 16.4027 86.5429 16.6147 86.3231 16.7662C86.1662 16.8571 85.9778 16.9176 85.7581 16.9176Z" fill="#333333"/>
<path d="M94.3279 16.9177C94.0453 16.9177 93.7942 16.8268 93.5745 16.6147C93.3547 16.4027 93.2606 16.1906 93.2606 15.8877C93.2606 15.6151 93.3547 15.3727 93.5745 15.1607C93.7942 14.9486 94.0139 14.8578 94.3279 14.8578H100.072C100.449 14.8578 100.794 14.7366 101.077 14.464C101.359 14.1913 101.485 13.8581 101.485 13.4946C101.485 13.1311 101.328 12.7979 101.077 12.5252C100.794 12.2526 100.481 12.1314 100.072 12.1314H96.7764C95.8032 12.1314 94.9871 11.7982 94.2965 11.1318C93.6059 10.4653 93.2606 9.67773 93.2606 8.73866C93.2606 7.79959 93.6059 7.01198 94.2965 6.34554C94.9871 5.6791 95.8032 5.34589 96.7764 5.34589H102.521C102.803 5.34589 103.055 5.43676 103.274 5.64881C103.494 5.86086 103.588 6.07291 103.588 6.37583C103.588 6.67876 103.494 6.89081 103.274 7.10286C103.055 7.31491 102.835 7.40578 102.521 7.40578H96.7764C96.3997 7.40578 96.0544 7.55725 95.7718 7.79959C95.4893 8.07222 95.3638 8.37515 95.3638 8.76895C95.3638 9.13246 95.4893 9.46568 95.7718 9.73831C96.0544 10.0109 96.3683 10.1321 96.7764 10.1321H100.072C101.046 10.1321 101.862 10.4653 102.552 11.1318C103.243 11.7982 103.588 12.5858 103.588 13.5249C103.588 14.464 103.243 15.2516 102.552 15.918C101.862 16.5844 101.046 16.9177 100.072 16.9177H94.3279Z" fill="#333333"/>
<path d="M110.243 16.9177C109.961 16.9177 109.709 16.8268 109.49 16.6147C109.301 16.433 109.176 16.1906 109.176 15.8877V7.40578H106.131C105.848 7.40578 105.597 7.31491 105.378 7.10286C105.158 6.89081 105.064 6.67876 105.064 6.37583C105.064 6.07291 105.158 5.86086 105.378 5.64881C105.597 5.43676 105.817 5.34589 106.131 5.34589H114.324C114.606 5.34589 114.858 5.43676 115.077 5.64881C115.297 5.86086 115.391 6.07291 115.391 6.37583C115.391 6.67876 115.297 6.89081 115.077 7.10286C114.858 7.31491 114.638 7.40578 114.324 7.40578H111.279V15.918C111.279 16.1906 111.185 16.433 110.965 16.645C110.777 16.8268 110.526 16.9177 110.243 16.9177Z" fill="#333333"/>
<path d="M122.894 16.9177C121.261 16.9177 119.849 16.3421 118.656 15.2213C117.494 14.1004 116.898 12.7373 116.898 11.1318C116.898 9.55656 117.494 8.1631 118.656 7.04227C119.817 5.92145 121.23 5.34589 122.894 5.34589C124.526 5.34589 125.97 5.92145 127.131 7.04227C128.293 8.1631 128.889 9.52627 128.889 11.1318C128.889 12.707 128.293 14.0702 127.131 15.2213C125.939 16.3421 124.526 16.9177 122.894 16.9177ZM122.894 7.40578C121.826 7.40578 120.916 7.76929 120.163 8.52661C119.409 9.25363 119.033 10.1321 119.033 11.1621C119.033 12.192 119.409 13.0705 120.163 13.7975C120.916 14.5245 121.826 14.8881 122.894 14.8881C123.961 14.8881 124.871 14.5245 125.656 13.7975C126.41 13.0705 126.786 12.192 126.786 11.1621C126.786 10.1321 126.41 9.25363 125.656 8.52661C124.871 7.76929 123.93 7.40578 122.894 7.40578Z" fill="#333333"/>
<path d="M140.63 16.9176C140.347 16.9176 140.096 16.8268 139.876 16.6147L136.894 13.7369H133.441V15.8877C133.441 16.1603 133.347 16.4027 133.127 16.6147C132.907 16.8268 132.688 16.9176 132.374 16.9176C132.091 16.9176 131.84 16.8268 131.62 16.6147C131.401 16.4027 131.307 16.1906 131.307 15.8877V6.40611C131.307 6.13347 131.401 5.89113 131.62 5.67909C131.84 5.46704 132.06 5.37616 132.374 5.37616H137.302C138.495 5.37616 139.5 5.76996 140.379 6.61816C141.226 7.43606 141.666 8.40542 141.666 9.58683C141.666 10.3139 141.477 11.0106 141.101 11.6164C140.755 12.2223 140.253 12.7373 139.625 13.1008L139.343 13.2825L141.352 15.191C141.571 15.403 141.666 15.6151 141.666 15.918C141.666 16.1906 141.571 16.433 141.352 16.645C141.163 16.8268 140.912 16.9176 140.63 16.9176ZM133.472 11.7073H137.334C137.961 11.7073 138.495 11.4953 138.903 11.0712C139.343 10.6471 139.562 10.1321 139.562 9.55654C139.562 8.95069 139.343 8.43571 138.903 8.04191C138.464 7.61781 137.93 7.40576 137.334 7.40576H133.472V11.7073Z" fill="#333333"/>
<path d="M148.32 16.9176C148.038 16.9176 147.787 16.8268 147.567 16.6147C147.347 16.4027 147.253 16.1906 147.253 15.8877V13.0099L143.329 6.92108C143.172 6.67874 143.141 6.4364 143.204 6.16377C143.266 5.89113 143.423 5.67909 143.675 5.52762C143.863 5.43674 144.02 5.37616 144.208 5.37616C144.302 5.37616 144.365 5.37616 144.459 5.40645C144.742 5.46704 144.962 5.6185 145.119 5.86084L148.352 10.8288L151.585 5.86084C151.742 5.6185 151.962 5.46704 152.244 5.40645C152.339 5.37616 152.401 5.37616 152.495 5.37616C152.684 5.37616 152.872 5.43674 153.029 5.52762C153.28 5.67909 153.437 5.89113 153.5 6.16377C153.563 6.4364 153.531 6.67874 153.374 6.92108L149.419 13.0099V15.8877C149.419 16.1603 149.325 16.4027 149.105 16.6147C148.885 16.8268 148.634 16.9176 148.32 16.9176Z" fill="#333333"/>
<defs>
<linearGradient id="paint0_linear_9_843" x1="29.0588" y1="13.2862" x2="9.78099" y2="13.2862" gradientUnits="userSpaceOnUse">
<stop stop-color="#B3FFC5"/>
<stop offset="1" stop-color="#97DDFA"/>
</linearGradient>
<linearGradient id="paint1_linear_9_843" x1="19.5894" y1="14.4085" x2="10.2913" y2="14.4085" gradientUnits="userSpaceOnUse">
<stop offset="0.00534759" stop-color="#0048B6"/>
<stop offset="0.3572" stop-color="#377ECF"/>
<stop offset="1" stop-color="#97DDFA"/>
</linearGradient>
<linearGradient id="paint2_linear_9_843" x1="23.751" y1="8.39828" x2="4.47321" y2="8.39828" gradientUnits="userSpaceOnUse">
<stop stop-color="#A9FFCE"/>
<stop offset="1" stop-color="#97DDFA"/>
</linearGradient>
<linearGradient id="paint3_linear_9_843" x1="4.29978" y1="-1.17354" x2="13.528" y2="8.3893" gradientUnits="userSpaceOnUse">
<stop stop-color="#2C95FF"/>
<stop offset="0.0952693" stop-color="#369CFF"/>
<stop offset="1" stop-color="#97DDFA"/>
</linearGradient>
<linearGradient id="paint4_linear_9_843" x1="14.4947" y1="9.48528" x2="4.97157" y2="9.48528" gradientUnits="userSpaceOnUse">
<stop offset="0.00534759" stop-color="#0048B6"/>
<stop offset="0.3572" stop-color="#377ECF"/>
<stop offset="1" stop-color="#97DDFA"/>
</linearGradient>
</defs>
</svg>
